<svg width="22" height="24" viewBox="0 0 22 24" fill="none" xmlns="http://www.w3.org/2000/svg">
<path d="M6.36166 2C6.74299 2 7.05191 2.324 7.05191 2.724V4.184C7.66424 4.172 8.35083 4.172 9.12358 4.172H12.804C13.5758 4.172 14.2624 4.172 14.8747 4.185V2.725C14.8747 2.325 15.1837 2 15.565 2C15.9463 2 16.2552 2.324 16.2552 2.724V4.25C17.5798 4.361 18.4497 4.634 19.0877 5.305C19.7276 5.975 19.9879 6.887 20.0933 8.277L20.1667 9H1.83333V8.276C1.93966 6.886 2.19999 5.974 2.83891 5.304C3.47783 4.634 4.34683 4.36 5.67141 4.249V2.724C5.67141 2.324 5.98033 2 6.36166 2Z" fill="#B5B5B5"/>
<path opacity="0.5" d="M20.1667 14V12C20.1667 11.161 20.163 9.665 20.1511 9H1.84249C1.83058 9.665 1.83333 11.161 1.83333 12V14C1.83333 17.771 1.83333 19.657 2.90766 20.828C3.98108 22 5.70899 22 9.16666 22H12.8333C16.2892 22 18.018 22 19.0923 20.828C20.1667 19.658 20.1667 17.772 20.1667 14Z" fill="#B5B5B5"/>
<path d="M16.5 17C16.5 17.2652 16.4034 17.5196 16.2315 17.7071C16.0596 17.8946 15.8264 18 15.5833 18C15.3402 18 15.1071 17.8946 14.9352 17.7071C14.7632 17.5196 14.6667 17.2652 14.6667 17C14.6667 16.7348 14.7632 16.4804 14.9352 16.2929C15.1071 16.1054 15.3402 16 15.5833 16C15.8264 16 16.0596 16.1054 16.2315 16.2929C16.4034 16.4804 16.5 16.7348 16.5 17ZM16.5 13C16.5 13.2652 16.4034 13.5196 16.2315 13.7071C16.0596 13.8946 15.8264 14 15.5833 14C15.3402 14 15.1071 13.8946 14.9352 13.7071C14.7632 13.5196 14.6667 13.2652 14.6667 13C14.6667 12.7348 14.7632 12.4804 14.9352 12.2929C15.1071 12.1054 15.3402 12 15.5833 12C15.8264 12 16.0596 12.1054 16.2315 12.2929C16.4034 12.4804 16.5 12.7348 16.5 13ZM11.9167 17C11.9167 17.2652 11.8201 17.5196 11.6482 17.7071C11.4763 17.8946 11.2431 18 11 18C10.7569 18 10.5237 17.8946 10.3518 17.7071C10.1799 17.5196 10.0833 17.2652 10.0833 17C10.0833 16.7348 10.1799 16.4804 10.3518 16.2929C10.5237 16.1054 10.7569 16 11 16C11.2431 16 11.4763 16.1054 11.6482 16.2929C11.8201 16.4804 11.9167 16.7348 11.9167 17ZM11.9167 13C11.9167 13.2652 11.8201 13.5196 11.6482 13.7071C11.4763 13.8946 11.2431 14 11 14C10.7569 14 10.5237 13.8946 10.3518 13.7071C10.1799 13.5196 10.0833 13.2652 10.0833 13C10.0833 12.7348 10.1799 12.4804 10.3518 12.2929C10.5237 12.1054 10.7569 12 11 12C11.2431 12 11.4763 12.1054 11.6482 12.2929C11.8201 12.4804 11.9167 12.7348 11.9167 13ZM7.33333 17C7.33333 17.2652 7.23676 17.5196 7.06485 17.7071C6.89294 17.8946 6.65978 18 6.41667 18C6.17355 18 5.94039 17.8946 5.76849 17.7071C5.59658 17.5196 5.5 17.2652 5.5 17C5.5 16.7348 5.59658 16.4804 5.76849 16.2929C5.94039 16.1054 6.17355 16 6.41667 16C6.65978 16 6.89294 16.1054 7.06485 16.2929C7.23676 16.4804 7.33333 16.7348 7.33333 17ZM7.33333 13C7.33333 13.2652 7.23676 13.5196 7.06485 13.7071C6.89294 13.8946 6.65978 14 6.41667 14C6.17355 14 5.94039 13.8946 5.76849 13.7071C5.59658 13.5196 5.5 13.2652 5.5 13C5.5 12.7348 5.59658 12.4804 5.76849 12.2929C5.94039 12.1054 6.17355 12 6.41667 12C6.65978 12 6.89294 12.1054 7.06485 12.2929C7.23676 12.4804 7.33333 12.7348 7.33333 13Z" fill="#B5B5B5"/>
</svg>
