<svg width="20" height="20" viewBox="0 0 20 20" fill="none" xmlns="http://www.w3.org/2000/svg">
<path d="M12.0417 15.8333L10 18.75L7.95833 15.8333H2.5C2.27899 15.8333 2.06703 15.7455 1.91075 15.5893C1.75447 15.433 1.66667 15.221 1.66667 15V3.33333C1.66667 3.11232 1.75447 2.90036 1.91075 2.74408C2.06703 2.5878 2.27899 2.5 2.5 2.5H17.5C17.721 2.5 17.933 2.5878 18.0893 2.74408C18.2455 2.90036 18.3333 3.11232 18.3333 3.33333V15C18.3333 15.221 18.2455 15.433 18.0893 15.5893C17.933 15.7455 17.721 15.8333 17.5 15.8333H12.0417Z" fill="#B5B5B5"/>
</svg>
