<svg width="24" height="23" viewBox="0 0 24 23" fill="none" xmlns="http://www.w3.org/2000/svg">
<path d="M11.2272 1.93502C11.3854 1.77702 11.5998 1.68826 11.8234 1.68826C12.047 1.68826 12.2615 1.77702 12.4197 1.93502L22.1959 11.7113C22.2738 11.7918 22.3669 11.8561 22.4699 11.9002C22.5728 11.9444 22.6836 11.9676 22.7956 11.9685C22.9076 11.9695 23.0187 11.9481 23.1224 11.9056C23.2261 11.8631 23.3203 11.8004 23.3994 11.7212C23.4786 11.6419 23.5412 11.5477 23.5836 11.444C23.626 11.3402 23.6473 11.2291 23.6463 11.1171C23.6452 11.0051 23.6219 10.8944 23.5776 10.7914C23.5334 10.6885 23.469 10.5954 23.3884 10.5176L13.6133 0.741397C13.3782 0.506345 13.0992 0.319892 12.7921 0.192683C12.485 0.0654738 12.1558 0 11.8234 0C11.491 0 11.1619 0.0654738 10.8547 0.192683C10.5476 0.319892 10.2686 0.506345 10.0335 0.741397L0.257297 10.5176C0.176748 10.5955 0.112514 10.6887 0.0683429 10.7916C0.024172 10.8946 0.000948822 11.0053 2.84719e-05 11.1173C-0.000891878 11.2294 0.020509 11.3405 0.0629823 11.4441C0.105456 11.5478 0.168151 11.642 0.24741 11.7212C0.326669 11.8004 0.420904 11.863 0.524618 11.9053C0.628331 11.9477 0.739445 11.969 0.851477 11.968C0.963508 11.967 1.07421 11.9436 1.17713 11.8994C1.28005 11.8551 1.37313 11.7908 1.45092 11.7101L11.2272 1.93502Z" fill="#282727"/>
<path d="M11.8209 3.7251L20.9998 12.904C21.0335 12.9377 21.0673 12.9692 21.1022 13.0007V19.9735C21.1022 21.1378 20.1572 22.0828 18.9928 22.0828H15.1959C14.9721 22.0828 14.7575 21.994 14.5993 21.8357C14.4411 21.6775 14.3522 21.4629 14.3522 21.2391V16.1766C14.3522 15.9528 14.2633 15.7382 14.105 15.58C13.9468 15.4217 13.7322 15.3328 13.5084 15.3328H10.1334C9.90965 15.3328 9.69504 15.4217 9.5368 15.58C9.37857 15.7382 9.28967 15.9528 9.28967 16.1766V21.2391C9.28967 21.4629 9.20078 21.6775 9.04254 21.8357C8.88431 21.994 8.6697 22.0828 8.44592 22.0828H4.64905C4.08961 22.0828 3.55308 21.8606 3.15749 21.465C2.76191 21.0694 2.53967 20.5329 2.53967 19.9735V13.0007C2.57467 12.9694 2.60881 12.9371 2.64205 12.904L11.8209 3.7251Z" fill="#282727"/>
</svg>
