<svg width="23" height="23" viewBox="0 0 23 23" fill="none" xmlns="http://www.w3.org/2000/svg">
<path fill-rule="evenodd" clip-rule="evenodd" d="M7.66667 6.70833C7.66667 5.69167 8.07053 4.71665 8.78942 3.99776C9.50831 3.27887 10.4833 2.875 11.5 2.875C12.5167 2.875 13.4917 3.27887 14.2106 3.99776C14.9295 4.71665 15.3333 5.69167 15.3333 6.70833C15.3333 7.725 14.9295 8.70002 14.2106 9.41891C13.4917 10.1378 12.5167 10.5417 11.5 10.5417C10.4833 10.5417 9.50831 10.1378 8.78942 9.41891C8.07053 8.70002 7.66667 7.725 7.66667 6.70833ZM7.66667 12.4583C6.39584 12.4583 5.17706 12.9632 4.27845 13.8618C3.37983 14.7604 2.875 15.9792 2.875 17.25C2.875 18.0125 3.1779 18.7438 3.71707 19.2829C4.25624 19.8221 4.9875 20.125 5.75 20.125H17.25C18.0125 20.125 18.7438 19.8221 19.2829 19.2829C19.8221 18.7438 20.125 18.0125 20.125 17.25C20.125 15.9792 19.6202 14.7604 18.7216 13.8618C17.8229 12.9632 16.6042 12.4583 15.3333 12.4583H7.66667Z" fill="#B5B5B5"/>
</svg>
