<svg width="25" height="25" viewBox="0 0 25 25" fill="none" xmlns="http://www.w3.org/2000/svg">
<path d="M20.4863 5.05844C17.7922 5.05844 15.1669 4.10444 12.5953 2.17519C12.4639 2.07669 12.3042 2.02344 12.14 2.02344C11.9758 2.02344 11.8161 2.07669 11.6848 2.17519C9.1131 4.10444 6.48782 5.05844 3.79375 5.05844C3.59252 5.05844 3.39953 5.13838 3.25724 5.28067C3.11494 5.42296 3.035 5.61595 3.035 5.81719V11.1284C3.035 16.1878 6.02751 19.9057 11.8618 22.2042C12.0406 22.2746 12.2394 22.2746 12.4182 22.2042C18.2525 19.9057 21.245 16.1868 21.245 11.1284V5.81719C21.245 5.61595 21.1651 5.42296 21.0228 5.28067C20.8805 5.13838 20.6875 5.05844 20.4863 5.05844ZM16.9525 9.41164L10.8825 14.9758C10.7383 15.1078 10.5487 15.1791 10.3533 15.1748C10.1578 15.1704 9.9716 15.0908 9.8334 14.9525L7.30424 12.4234C7.22969 12.3539 7.1699 12.2701 7.12843 12.1771C7.08696 12.084 7.06466 11.9835 7.06286 11.8816C7.06106 11.7798 7.0798 11.6786 7.11797 11.5841C7.15613 11.4896 7.21293 11.4038 7.28498 11.3317C7.35703 11.2597 7.44285 11.2029 7.53733 11.1647C7.6318 11.1266 7.733 11.1078 7.83488 11.1096C7.93676 11.1114 8.03723 11.1337 8.1303 11.1752C8.22337 11.2167 8.30714 11.2765 8.3766 11.351L10.3929 13.3662L15.9267 8.29274C16.075 8.1567 16.2714 8.08518 16.4725 8.09391C16.6736 8.10264 16.863 8.1909 16.999 8.33927C17.1351 8.48765 17.2066 8.68399 17.1979 8.88509C17.1891 9.0862 17.1009 9.27561 16.9525 9.41164Z" fill="black"/>
</svg>
