<svg width="24" height="34" viewBox="0 0 24 34" fill="none" xmlns="http://www.w3.org/2000/svg">
<path d="M12 16.1666C10.8949 16.1666 9.83512 15.7276 9.05372 14.9462C8.27232 14.1648 7.83333 13.105 7.83333 11.9999C7.83333 10.8948 8.27232 9.83504 9.05372 9.05364C9.83512 8.27224 10.8949 7.83325 12 7.83325C13.1051 7.83325 14.1649 8.27224 14.9463 9.05364C15.7277 9.83504 16.1667 10.8948 16.1667 11.9999C16.1667 12.5471 16.0589 13.0889 15.8495 13.5944C15.6401 14.1 15.3332 14.5593 14.9463 14.9462C14.5594 15.3331 14.1 15.64 13.5945 15.8494C13.089 16.0588 12.5472 16.1666 12 16.1666ZM12 0.333252C8.9058 0.333252 5.93834 1.56241 3.75042 3.75034C1.56249 5.93826 0.333328 8.90573 0.333328 11.9999C0.333328 20.7499 12 33.6666 12 33.6666C12 33.6666 23.6667 20.7499 23.6667 11.9999C23.6667 8.90573 22.4375 5.93826 20.2496 3.75034C18.0616 1.56241 15.0942 0.333252 12 0.333252Z" fill="black"/>
</svg>
