<svg width="93" height="51" viewBox="0 0 93 51" fill="none" xmlns="http://www.w3.org/2000/svg">
<rect width="92.1424" height="50.0526" rx="17.0634" fill="black"/>
<path fill-rule="evenodd" clip-rule="evenodd" d="M22.8404 19.3365L21.1254 16.9978C21.0088 16.8388 20.7884 16.7982 20.6228 16.9054C18.379 18.3572 17.7623 20.575 18.6624 22.2099C19.6469 23.9979 21.1653 26.1907 23.4943 28.5197C25.8233 30.8486 28.016 32.367 29.804 33.3515C31.4389 34.2517 33.6567 33.6349 35.1085 31.3911C35.2157 31.2256 35.1752 31.0052 35.0161 30.8885L32.6774 29.1735C32.3335 28.9213 31.8775 28.8827 31.496 29.0734L30.5638 29.5395C29.771 29.9359 28.6841 30.0752 27.6553 29.5459C26.9674 29.192 25.9073 28.5195 24.7008 27.3131C23.4944 26.1066 22.8219 25.0465 22.468 24.3587C21.9387 23.3298 22.078 22.243 22.4744 21.4501L22.9405 20.5179C23.1313 20.1365 23.0926 19.6804 22.8404 19.3365ZM19.3868 14.9953C16.4968 16.8653 15.0092 20.2919 16.6694 23.3073C17.753 25.2752 19.3989 27.6417 21.8855 30.1284C24.3722 32.6151 26.7387 34.2609 28.7067 35.3445C31.722 37.0048 35.1487 35.5171 37.0187 32.6271C37.7804 31.4499 37.4922 29.883 36.3615 29.0539L34.0229 27.3389C32.9911 26.5823 31.6229 26.4663 30.4785 27.0385L29.5464 27.5046C29.2765 27.6395 28.9644 27.6608 28.6961 27.5228C28.2073 27.2713 27.3411 26.7359 26.3096 25.7043C25.2781 24.6728 24.7426 23.8066 24.4911 23.3179C24.3531 23.0496 24.3745 22.7374 24.5094 22.4676L24.9755 21.5354C25.5476 20.391 25.4317 19.0228 24.6751 17.9911L22.9601 15.6524C22.1309 14.5217 20.564 14.2336 19.3868 14.9953Z" fill="white"/>
<path d="M60.9251 22.8519H58.8099C58.7496 22.505 58.6384 22.1977 58.4762 21.93C58.3141 21.6586 58.1124 21.4286 57.8711 21.2401C57.6298 21.0515 57.3546 20.9102 57.0454 20.8159C56.74 20.7179 56.4101 20.6689 56.0557 20.6689C55.4261 20.6689 54.868 20.8272 54.3817 21.1439C53.8953 21.4569 53.5145 21.9168 53.2393 22.5239C52.964 23.1271 52.8264 23.8642 52.8264 24.7352C52.8264 25.6212 52.964 26.3677 53.2393 26.9747C53.5183 27.578 53.8991 28.0342 54.3817 28.3434C54.868 28.6487 55.4242 28.8014 56.05 28.8014C56.3969 28.8014 56.7212 28.7562 57.0228 28.6657C57.3282 28.5715 57.6015 28.4338 57.8428 28.2529C58.0879 28.0719 58.2934 27.8494 58.4593 27.5855C58.6289 27.3216 58.7458 27.02 58.8099 26.6806L60.9251 26.6919C60.8459 27.2424 60.6743 27.759 60.4104 28.2416C60.1503 28.7242 59.8091 29.1502 59.3868 29.5197C58.9645 29.8854 58.4706 30.172 57.905 30.3793C57.3395 30.5829 56.7117 30.6847 56.0218 30.6847C55.0038 30.6847 54.0951 30.4491 53.2958 29.9778C52.4965 29.5065 51.8669 28.826 51.4069 27.9362C50.9469 27.0464 50.7169 25.9794 50.7169 24.7352C50.7169 23.4872 50.9488 22.4202 51.4125 21.5341C51.8763 20.6444 52.5078 19.9638 53.3071 19.4925C54.1064 19.0212 55.0113 18.7856 56.0218 18.7856C56.6665 18.7856 57.266 18.8761 57.8202 19.057C58.3744 19.238 58.8684 19.5038 59.3019 19.8545C59.7355 20.2013 60.0918 20.6274 60.3708 21.1326C60.6536 21.6341 60.8383 22.2072 60.9251 22.8519ZM65.0965 30.7017C64.546 30.7017 64.0502 30.6037 63.6091 30.4076C63.1717 30.2078 62.8249 29.9137 62.5685 29.5253C62.3159 29.137 62.1896 28.6582 62.1896 28.0889C62.1896 27.5987 62.2801 27.1934 62.461 26.8729C62.642 26.5524 62.889 26.2961 63.2019 26.1038C63.5148 25.9115 63.8674 25.7663 64.2595 25.6683C64.6554 25.5665 65.0644 25.493 65.4867 25.4477C65.9957 25.395 66.4086 25.3478 66.7253 25.3064C67.042 25.2611 67.272 25.1932 67.4152 25.1028C67.5623 25.0085 67.6358 24.8633 67.6358 24.6673V24.6334C67.6358 24.2073 67.5095 23.8774 67.2569 23.6436C67.0043 23.4099 66.6404 23.293 66.1654 23.293C65.6639 23.293 65.2662 23.4023 64.9721 23.621C64.6818 23.8397 64.4857 24.098 64.3839 24.3958L62.4723 24.1244C62.6232 23.5965 62.872 23.1554 63.2189 22.801C63.5657 22.4428 63.9899 22.1751 64.4914 21.9979C64.9928 21.8169 65.547 21.7264 66.1541 21.7264C66.5726 21.7264 66.9892 21.7754 67.4039 21.8735C67.8187 21.9715 68.1976 22.1336 68.5407 22.3598C68.8838 22.5823 69.159 22.8858 69.3664 23.2704C69.5775 23.655 69.6831 24.1357 69.6831 24.7125V30.5264H67.715V29.3331H67.6471C67.5227 29.5744 67.3474 29.8006 67.1212 30.0117C66.8987 30.2191 66.6178 30.3869 66.2785 30.5151C65.9429 30.6395 65.5489 30.7017 65.0965 30.7017ZM65.6281 29.1973C66.0391 29.1973 66.3954 29.1163 66.697 28.9541C66.9986 28.7882 67.2305 28.5696 67.3926 28.2981C67.5585 28.0266 67.6415 27.7307 67.6415 27.4102V26.3866C67.5774 26.4393 67.468 26.4884 67.3134 26.5336C67.1626 26.5788 66.993 26.6184 66.8044 26.6524C66.6159 26.6863 66.4293 26.7165 66.2446 26.7428C66.0598 26.7692 65.8996 26.7919 65.7638 26.8107C65.4584 26.8522 65.1851 26.9201 64.9438 27.0143C64.7025 27.1086 64.5121 27.2405 64.3726 27.4102C64.2331 27.5761 64.1633 27.791 64.1633 28.0549C64.1633 28.432 64.301 28.7166 64.5762 28.9089C64.8514 29.1012 65.2021 29.1973 65.6281 29.1973ZM73.6297 18.9439V30.5264H71.5824V18.9439H73.6297ZM77.623 18.9439V30.5264H75.5757V18.9439H77.623Z" fill="#FCFCFC"/>
</svg>
