<svg width="25" height="25" viewBox="0 0 25 25" fill="none" xmlns="http://www.w3.org/2000/svg">
<path d="M12.14 0C18.8449 0 24.28 5.43508 24.28 12.14C24.28 18.8449 18.8449 24.28 12.14 24.28C5.43508 24.28 0 18.8449 0 12.14C0 5.43508 5.43508 0 12.14 0ZM11.011 6.77533C10.7862 6.77533 10.5707 6.86461 10.4118 7.02352C10.2529 7.18244 10.1636 7.39797 10.1636 7.62271V14.398C10.1636 14.8666 10.5424 15.2454 11.011 15.2454H17.7863C17.9002 15.2497 18.0138 15.231 18.1203 15.1904C18.2268 15.1498 18.324 15.0881 18.4061 15.0091C18.4882 14.93 18.5535 14.8352 18.5981 14.7303C18.6428 14.6254 18.6658 14.5126 18.6658 14.3986C18.6658 14.2847 18.6428 14.1719 18.5981 14.067C18.5535 13.9621 18.4882 13.8673 18.4061 13.7882C18.324 13.7092 18.2268 13.6475 18.1203 13.6069C18.0138 13.5663 17.9002 13.5476 17.7863 13.5519H11.8571V7.62271C11.8571 7.39818 11.768 7.18283 11.6094 7.02395C11.4507 6.86507 11.2355 6.77566 11.011 6.77533Z" fill="#F5F6F7"/>
</svg>
