<svg width="23" height="23" viewBox="0 0 23 23" fill="none" xmlns="http://www.w3.org/2000/svg">
<g clip-path="url(#clip0_3_428)">
<path d="M14.375 18.2084C14.3752 18.692 14.1925 19.1577 13.8637 19.5123C13.5349 19.8668 13.0843 20.084 12.6021 20.1203L12.4583 20.1251H10.5417C10.0581 20.1252 9.59237 19.9426 9.23781 19.6138C8.88324 19.285 8.66606 18.8344 8.62979 18.3522L8.625 18.2084H14.375ZM11.5 1.91675C13.2394 1.91672 14.9107 2.59227 16.1616 3.8009C17.4124 5.00953 18.1449 6.65675 18.2045 8.39508L18.2083 8.62508V12.2322L19.9544 15.7244C20.0306 15.8768 20.0688 16.0454 20.0656 16.2157C20.0624 16.386 20.0179 16.5531 19.9361 16.7025C19.8542 16.8519 19.7373 16.9792 19.5955 17.0736C19.4537 17.168 19.2911 17.2265 19.1216 17.2443L19.0114 17.2501H3.98858C3.81816 17.2501 3.65026 17.2089 3.49928 17.1298C3.3483 17.0507 3.21873 16.9363 3.12169 16.7962C3.02465 16.6561 2.96302 16.4945 2.94209 16.3254C2.92115 16.1563 2.94154 15.9846 3.0015 15.825L3.04558 15.7244L4.79167 12.2322V8.62508C4.79167 6.84592 5.49844 5.13963 6.75649 3.88157C8.01455 2.62352 9.72084 1.91675 11.5 1.91675Z" fill="black"/>
</g>
<defs>
<clipPath id="clip0_3_428">
<rect width="23" height="23" fill="white"/>
</clipPath>
</defs>
</svg>
