<svg width="153" height="152" viewBox="0 0 153 152" fill="none" xmlns="http://www.w3.org/2000/svg">
<path d="M76.2911 152C118.265 152 152.291 117.974 152.291 76C152.291 34.0264 118.265 0 76.2911 0C34.3174 0 0.291077 34.0264 0.291077 76C0.291077 117.974 34.3174 152 76.2911 152Z" fill="#6B7580"/>
<path d="M65.2255 65.8342C64.8413 65.744 64.4371 65.8017 64.0468 65.8265C63.7451 65.8458 63.454 65.8422 63.1618 65.8192C62.9577 66.3588 62.646 66.8437 62.2208 67.2122C60.482 68.7194 57.6322 68.4467 56.3421 66.5297C55.1715 64.7901 55.3623 62.3359 57.1104 61.0663C57.1331 61.0498 57.1558 61.0356 57.1784 61.0212C57.3128 60.8733 57.471 60.7821 57.6375 60.7344C57.7647 60.6359 57.9084 60.5519 58.0676 60.4846C58.3485 60.366 58.6542 60.2958 58.9613 60.2755C59.8996 59.8809 61.4095 60.5006 62.178 61.1479C62.5689 61.4772 62.8692 61.9061 63.0805 62.387C63.1951 62.3837 63.3176 62.3991 63.4471 62.4371C63.6006 62.482 63.8389 62.4653 64.0899 62.4477C64.1248 62.4453 64.3598 62.4243 64.3535 62.4296C64.4133 62.4207 64.4733 62.4119 64.5331 62.4037C64.8139 62.3651 65.1171 62.3455 65.3996 62.3971V47.5847H28.1478V84.8365H65.3996V65.8615C65.3428 65.8562 65.2852 65.8481 65.2255 65.8342Z" fill="white"/>
<path d="M46.5743 84.8366V82.9571C47.9209 82.2968 48.8484 80.9128 48.8484 79.3117C48.8484 77.0704 47.0314 75.2534 44.79 75.2534C42.5487 75.2534 40.7318 77.0704 40.7318 79.3117C40.7318 80.9128 41.6593 82.2968 43.0058 82.9571V84.8366H28.1477V122.088H65.3994V84.8366H46.5743Z" fill="#CA3939"/>
<path d="M65.3994 84.8364V103.715H63.2057C62.5454 102.368 61.1615 101.441 59.5604 101.441C57.319 101.441 55.5021 103.258 55.5021 105.499C55.5021 107.74 57.319 109.557 59.5604 109.557C61.1615 109.557 62.5454 108.63 63.2057 107.283H65.3994V122.088H102.651V84.8364H65.3994Z" fill="white"/>
<path d="M144.388 50.3501H78.6953V141.243H144.388V50.3501Z" fill="#DADADA"/>
<path d="M147.107 143.887H81.4141C81.3682 143.887 81.3311 143.85 81.3311 143.804V52.9112C81.3311 52.8653 81.3682 52.8281 81.4141 52.8281H147.107C147.153 52.8281 147.19 52.8653 147.19 52.9112V143.804C147.19 143.85 147.153 143.887 147.107 143.887ZM81.4972 143.721H147.024V52.9942H81.4972V143.721Z" fill="black"/>
<path d="M126.54 119.71H102.934V121.377H126.54V119.71Z" fill="#777777"/>
<path d="M135.619 123.875H106.597V125.541H135.619V123.875Z" fill="#777777"/>
<path d="M130.857 128.038H102.934V129.705H130.857V128.038Z" fill="#777777"/>
<path d="M138.384 101.375H109.181V103.042H138.384V101.375Z" fill="#777777"/>
<path d="M130.067 105.539H102.144V107.206H130.067V105.539Z" fill="#777777"/>
<path d="M134.932 109.703H102.144V111.37H134.932V109.703Z" fill="#777777"/>
<path d="M134.932 84.1506H109.284V85.8173H134.932V84.1506Z" fill="#777777"/>
<path d="M130.067 88.3145H102.247V89.9811H130.067V88.3145Z" fill="#777777"/>
<path d="M138.384 92.4785H102.247V94.1452H138.384V92.4785Z" fill="#777777"/>
<path d="M100.307 117.973H86.8314V131.442H100.307V117.973Z" fill="white"/>
<path d="M92.8463 129.406L88.6273 125.57L89.9307 123.964L92.6057 126.101L96.8031 120.01L98.5108 121.185L92.8463 129.406Z" fill="black"/>
<path d="M100.307 99.6382H86.8314V113.107H100.307V99.6382Z" fill="white"/>
<path d="M92.8463 111.071L88.6273 107.235L89.9307 105.629L92.6057 107.766L96.8031 101.674L98.5108 102.85L92.8463 111.071Z" fill="black"/>
<path d="M100.307 82.4136H86.8313V95.8822H100.307V82.4136Z" fill="white"/>
<path d="M92.8462 93.8461L88.6273 90.0106L89.9306 88.4041L92.6057 90.5416L96.803 84.4497L98.5108 85.6251L92.8462 93.8461Z" fill="black"/>
<path d="M124.658 65.7576H86.8313V67.2761H124.658V65.7576Z" fill="white"/>
<path d="M134.932 69.2688H86.8314V70.7873H134.932V69.2688Z" fill="white"/>
<path d="M134.932 72.7795H86.8314V74.298H134.932V72.7795Z" fill="white"/>
<path d="M138.847 77.6979H86.7079C86.662 77.6979 86.6249 77.6607 86.6249 77.6148C86.6249 77.5689 86.662 77.5317 86.7079 77.5317H138.847C138.893 77.5317 138.93 77.5689 138.93 77.6148C138.93 77.6607 138.893 77.6979 138.847 77.6979Z" fill="#9E6C5A"/>
<path d="M92.1215 49.0103V58.5593H138.851V49.0103H92.1215Z" fill="#D3BBA3"/>
<path d="M122.732 49.2505H108.24C108.194 49.2505 108.157 49.2134 108.157 49.1674C108.157 45.1262 111.445 41.8384 115.486 41.8384C119.527 41.8384 122.815 45.1262 122.815 49.1674C122.815 49.2134 122.778 49.2505 122.732 49.2505ZM120.908 49.0844H122.648C122.604 45.1728 119.408 42.0045 115.486 42.0045C111.564 42.0045 108.368 45.1728 108.324 49.0844H110.064C110.109 46.1327 112.524 43.7452 115.486 43.7452C118.448 43.7452 120.863 46.1327 120.908 49.0844ZM110.23 49.0844H120.741C120.697 46.2244 118.356 43.9113 115.486 43.9113C112.616 43.9113 110.275 46.2244 110.23 49.0844Z" fill="#9E6C5A"/>
<path d="M83.1119 27.2776C83.1119 27.2776 70.1801 29.6735 68.1854 40.5146L83.3339 41.7564L83.1119 27.2776Z" fill="#84524D"/>
<path d="M105.707 43.1923C109.263 44.4313 112.604 45.0668 118.962 52.7328C122.957 57.5504 126.597 58.688 128.232 56.8049C134.635 49.4335 123.635 39.6961 117.161 35.3715C114.099 33.326 108.29 40.7861 105.707 43.1923Z" fill="#84524D"/>
<path d="M109.658 45.3378L106.925 58.2843L78.9662 50.4288L86.1724 38.7098L80.3722 38.3356C80.4346 34.2817 80.4794 31.2063 80.5418 27.1525C86.94 25.9201 92.9878 26.5402 99.3025 27.4287C105.399 28.2864 113.072 32.1407 119.163 35.8322L113.462 48.1052L109.658 45.3378Z" fill="white"/>
<path d="M111.878 75.2274L121.787 46.2736L92.833 36.3647L88.895 47.8718L87.1899 47.2883C87.0349 46.0659 86.2059 44.977 84.9615 44.5512C83.2194 43.9549 81.3239 44.8839 80.7277 46.626C80.1315 48.3679 81.0604 50.2635 82.8025 50.8596C84.0469 51.2855 85.3692 50.9329 86.2407 50.0619L87.9458 50.6454L82.9242 65.3185L97.556 70.3259L97.0561 71.7866C95.8338 71.9416 94.7448 72.7707 94.319 74.0151C93.7228 75.7572 94.6517 77.6527 96.3938 78.2489C98.1358 78.8451 100.031 77.9161 100.628 76.174C101.053 74.9296 100.701 73.6072 99.8297 72.7359L100.33 71.2752L111.878 75.2274Z" fill="black"/>
<path d="M121.42 47.4258C121.42 47.4258 114.873 54.8613 111.68 59.0476C108.328 63.4441 104.018 70.4234 105.002 71.0137C105.563 71.3499 106.347 70.5196 108.297 68.1609C108.317 68.3788 108.498 68.9965 109.069 69.2232C109.914 69.5586 110.418 68.9766 110.483 68.9423C110.484 69.0168 110.518 69.8183 111.045 70.1385C111.64 70.4992 112.232 70.388 112.677 70.0714C112.685 70.2559 112.785 70.9339 113.301 71.2267C113.832 71.5279 114.605 71.457 114.984 70.9447C115.679 70.0051 117.69 67.1732 118.837 65.9142C120.336 64.2684 124.898 60.3077 128.47 56.5316C130.56 54.3218 129.688 50.7001 126.83 49.6576C123.911 48.5926 121.42 47.4258 121.42 47.4258Z" fill="#84524D"/>
<path d="M115.235 69.6252C115.222 69.6252 115.208 69.6218 115.195 69.6146L114.333 69.132C114.293 69.1096 114.279 69.059 114.301 69.0191C114.323 68.9791 114.374 68.9648 114.414 68.9871L115.276 69.4696C115.316 69.4921 115.33 69.5427 115.308 69.5826C115.293 69.6098 115.264 69.6252 115.235 69.6252Z" fill="#363E44"/>
<path d="M113.178 68.4233C113.165 68.4233 113.152 68.4203 113.14 68.414L112.148 67.8996C112.108 67.8784 112.092 67.8283 112.113 67.7875C112.134 67.7467 112.184 67.7309 112.225 67.7521L113.216 68.2665C113.257 68.2876 113.273 68.3377 113.252 68.3785C113.237 68.407 113.208 68.4233 113.178 68.4233Z" fill="#363E44"/>
<path d="M110.93 67.3091C110.916 67.3091 110.903 67.3057 110.89 67.2985C110.73 67.209 110.585 67.1293 110.441 67.0496C110.294 66.9687 110.147 66.888 109.986 66.7971C109.946 66.7746 109.931 66.724 109.954 66.6841C109.976 66.6439 110.027 66.6298 110.067 66.6522C110.228 66.743 110.375 66.8235 110.521 66.9042C110.666 66.984 110.811 67.0639 110.971 67.1536C111.011 67.1761 111.025 67.2267 111.003 67.2666C110.987 67.2939 110.959 67.3091 110.93 67.3091Z" fill="#363E44"/>
<path d="M109.171 66.2157C109.156 66.2157 109.14 66.2112 109.125 66.2019L108.307 65.661C108.269 65.6356 108.259 65.5841 108.284 65.5458C108.309 65.5075 108.361 65.497 108.399 65.5224L109.217 66.0634C109.255 66.0887 109.266 66.1402 109.241 66.1785C109.225 66.2027 109.198 66.2157 109.171 66.2157Z" fill="#363E44"/>
<path d="M68.2443 43.1298C70.3833 48.8234 87.7156 45.1361 92.2431 44.2065C92.8916 44.2826 93.8734 44.2971 94.8427 43.8194C95.9477 43.2749 95.978 42.6123 97.0546 41.8561C98.8716 40.5797 100.612 41.2574 100.715 40.4775C100.786 39.9421 99.7889 39.5035 98.7756 39.3398C97.7351 39.1718 96.9915 39.5011 96.9335 39.3385C96.8698 39.1601 97.6685 38.9233 98.6345 38.5376C99.0834 38.3584 100.619 38.6254 100.823 37.9084C100.987 37.3368 99.4597 36.6598 98.0166 36.8591C96.9955 37.0002 96.3316 37.7486 96.2185 37.5983C96.1336 37.4855 96.5402 37.0492 97.0026 36.7777C97.7657 36.3295 99.3395 36.5859 99.515 35.9222C99.6868 35.272 98.3431 34.7041 97.0041 34.8035C95.8751 34.8872 95.1746 35.7572 95.0329 35.5711C94.9331 35.4402 95.1658 34.9856 95.9139 34.2209C96.5383 33.5827 98.1641 32.7442 97.5938 31.9911C97.1141 31.3576 95.3861 32.1979 93.9361 33.2668C92.9754 33.975 92.0861 34.8042 91.5536 35.2617C91.5171 34.8906 91.4855 34.3173 91.5547 33.6243C91.6782 32.3882 91.8838 31.9609 91.4268 31.6341C90.9559 31.2972 90.3191 32.0581 89.8442 33.08C89.2777 34.2989 89.358 35.3949 89.2811 36.0174C87.0565 36.103 77.6282 36.2267 74.1548 36.3189C72.6763 36.3582 71.2504 36.8839 70.1026 37.8166C68.461 39.1508 67.5066 41.1662 68.2443 43.1298Z" fill="#84524D"/>
<path d="M109.134 22.4846C109.692 21.4899 109.338 20.2313 108.343 19.6732C107.349 19.1152 106.09 19.4691 105.532 20.4637C104.974 21.4583 105.328 22.717 106.323 23.2751C107.317 23.8331 108.576 23.4792 109.134 22.4846Z" fill="#363E44"/>
<path d="M109.749 20.1605C110.832 19.2785 110.994 17.686 110.112 16.6036C109.23 15.5212 107.638 15.3588 106.555 16.2408C105.473 17.1229 105.31 18.7153 106.193 19.7977C107.075 20.8801 108.667 21.0426 109.749 20.1605Z" fill="#363E44"/>
<path d="M104.704 14.9523C104.875 16.0798 105.928 16.855 107.056 16.6838C108.183 16.5125 108.958 15.4596 108.787 14.3321C108.616 13.2045 107.563 12.4293 106.436 12.6006C105.308 12.7718 104.533 13.8248 104.704 14.9523Z" fill="#363E44"/>
<path d="M101.868 13.9999C102.039 15.1274 103.092 15.9026 104.22 15.7314C105.347 15.5601 106.122 14.5072 105.951 13.3797C105.78 12.2521 104.727 11.4769 103.599 11.6482C102.472 11.8194 101.697 12.8724 101.868 13.9999Z" fill="#363E44"/>
<path d="M98.9511 14.654C99.1223 15.7816 100.175 16.5568 101.303 16.3855C102.43 16.2142 103.206 15.1613 103.034 14.0337C102.863 12.9062 101.81 12.131 100.683 12.3023C99.555 12.4736 98.7798 13.5265 98.9511 14.654Z" fill="#363E44"/>
<path d="M97.8859 16.4151C97.9823 17.0501 98.5753 17.4867 99.2103 17.3903C99.8453 17.2938 100.282 16.7009 100.185 16.0659C100.089 15.4309 99.496 14.9943 98.861 15.0907C98.226 15.1871 97.7895 15.7801 97.8859 16.4151Z" fill="#363E44"/>
<path d="M100.648 32.6C102.065 32.831 103.401 31.8698 103.632 30.453L104.38 25.8652C104.611 24.4484 103.65 23.1127 102.233 22.8817C100.816 22.6507 99.4806 23.6119 99.2495 25.0286L98.5014 29.6164C98.2704 31.0332 99.2316 32.369 100.648 32.6Z" fill="#84524D"/>
<path d="M102.889 16.2882C102.659 16.2275 100.453 15.6798 98.8566 16.9893C97.6688 17.9636 97.3103 19.4044 97.0745 21.9119C96.7967 24.8649 97.0432 26.6689 97.7899 27.3824C98.9697 28.5099 103.282 27.1219 105.195 24.8159C106.576 23.1514 106.839 20.7606 105.994 18.7534C105.151 16.7518 103.035 16.3269 102.889 16.2882Z" fill="#84524D"/>
<path d="M96.9577 19.325C96.957 19.3448 96.9424 19.3586 96.9418 19.3782C96.9418 19.3791 96.9421 19.3797 96.9421 19.3806C96.8478 19.6414 96.7476 19.9163 96.6073 20.1554C96.5451 20.2613 96.4596 20.3133 96.3897 20.4065C96.3385 20.4749 96.2897 20.5404 96.2365 20.6057C95.6951 19.8627 95.5817 19.0005 95.5817 19.0005C95.5817 19.0005 96.2582 19.0191 96.9577 19.325Z" fill="white"/>
<mask id="mask0_10_394" style="mask-type:luminance" maskUnits="userSpaceOnUse" x="95" y="19" width="5" height="4">
<path d="M95.9029 22.624C95.9029 22.624 97.1655 22.6089 98.0506 21.828C98.9357 21.0472 99.1082 19.7964 99.1082 19.7964C99.1082 19.7964 97.8457 19.8115 96.9605 20.5924C96.0754 21.3732 95.9029 22.624 95.9029 22.624Z" fill="white"/>
</mask>
<g mask="url(#mask0_10_394)">
<path d="M99.3134 20.8129C99.414 19.9664 98.8093 19.1986 97.9627 19.098C97.1162 18.9974 96.3484 19.6021 96.2478 20.4487C96.1472 21.2952 96.7519 22.063 97.5985 22.1636C98.445 22.2642 99.2128 21.6595 99.3134 20.8129Z" fill="#363E44"/>
</g>
<path d="M101.782 21.9912C101.735 22.3155 101.639 22.5519 101.421 22.7782C100.659 22.6066 100.104 22.2057 100.104 22.2057C100.104 22.2057 100.83 21.4803 101.82 21.2561C101.868 21.4927 101.815 21.7609 101.782 21.9912Z" fill="white"/>
<mask id="mask1_10_394" style="mask-type:luminance" maskUnits="userSpaceOnUse" x="100" y="21" width="5" height="2">
<path d="M104.363 21.8435C104.363 21.8435 103.34 21.1036 102.164 21.2036C100.988 21.3036 100.104 22.2056 100.104 22.2056C100.104 22.2056 101.127 22.9455 102.303 22.8455C103.48 22.7455 104.363 21.8435 104.363 21.8435Z" fill="white"/>
</mask>
<g mask="url(#mask1_10_394)">
<path d="M104.143 21.4054C103.625 20.7282 102.656 20.5989 101.979 21.1168C101.302 21.6346 101.172 22.6034 101.69 23.2806C102.208 23.9578 103.177 24.0871 103.854 23.5692C104.531 23.0514 104.66 22.0826 104.143 21.4054Z" fill="#363E44"/>
</g>
<path d="M107.475 15.5222C108.203 15.5819 108.605 21.8623 108.605 21.8623C108.605 21.8623 107.03 24.4887 104.336 26.1738C104.412 25.2125 105.207 22.5388 104.862 21.8188C104.432 20.9227 104.403 20.1064 104.793 19.2552C103.864 17.4956 98.5029 17.342 98.4288 17.2321C98.2101 16.9073 100.986 14.4599 102.373 13.3266C103.156 12.6871 101.511 13.8718 102.812 14.0341C105.125 14.3228 107.353 14.8236 107.475 15.5222Z" fill="#363E44"/>
<path d="M104.304 22.6253C103.764 23.409 103.864 24.4143 104.526 24.8707C105.188 25.3271 106.163 25.0617 106.703 24.278C107.243 23.4944 107.144 22.4891 106.481 22.0327C105.819 21.5763 104.844 21.8416 104.304 22.6253Z" fill="#84524D"/>
<path d="M106.001 24.0915C105.98 24.0915 105.959 24.0836 105.943 24.0679C105.91 24.0359 105.909 23.9833 105.941 23.9505C105.979 23.9117 106.014 23.8693 106.045 23.8245C106.293 23.4646 106.252 23.0045 105.953 22.7989C105.882 22.7497 105.801 22.7184 105.713 22.706C105.667 22.6996 105.636 22.6576 105.642 22.6121C105.648 22.5668 105.69 22.5346 105.736 22.5414C105.85 22.5575 105.955 22.5981 106.048 22.6621C106.421 22.9197 106.482 23.4833 106.182 23.9187C106.145 23.9712 106.105 24.0209 106.06 24.0663C106.044 24.0831 106.022 24.0915 106.001 24.0915Z" fill="#363E44"/>
<path d="M98.3176 23.4395C98.286 23.4395 98.2558 23.4213 98.2419 23.3907C98.1633 23.2174 98.1484 23.0604 98.1976 22.924C98.2514 22.774 98.3657 22.6997 98.4867 22.6211C98.5693 22.5673 98.663 22.5063 98.7559 22.4108C98.8738 22.2894 98.9653 22.1377 99.0278 21.9601C99.043 21.9169 99.0905 21.894 99.1337 21.9093C99.177 21.9246 99.1997 21.972 99.1845 22.0152C99.1139 22.2157 99.0097 22.3877 98.8749 22.5265C98.769 22.6353 98.667 22.7017 98.577 22.7603C98.4677 22.8314 98.3887 22.8828 98.3538 22.9802C98.3197 23.0747 98.3329 23.1896 98.3931 23.3221C98.4121 23.3639 98.3936 23.4131 98.3518 23.4321C98.3408 23.4371 98.3291 23.4395 98.3176 23.4395Z" fill="#363E44"/>
<path d="M99.064 25.0095C98.7884 25.0095 98.5817 24.8931 98.4972 24.836C98.4593 24.8103 98.4492 24.7587 98.4748 24.7206C98.5005 24.6827 98.552 24.6726 98.5902 24.6982C98.6736 24.7546 98.8993 24.8802 99.1948 24.8328C99.524 24.7795 99.7061 24.5465 99.7541 24.4764C99.7799 24.4386 99.8316 24.4288 99.8695 24.4547C99.9074 24.4806 99.9171 24.5323 99.8912 24.5701C99.8339 24.6541 99.6159 24.9329 99.2213 24.9968C99.1668 25.0056 99.1142 25.0095 99.064 25.0095Z" fill="#363E44"/>
<path d="M99.2919 27.8613C99.2501 27.8613 99.214 27.8299 99.2094 27.7874C99.2043 27.7418 99.2372 27.7007 99.2828 27.6957C102.444 27.3448 103.433 26.1576 103.442 26.1457C103.471 26.1101 103.524 26.1043 103.559 26.1331C103.595 26.1619 103.6 26.214 103.572 26.2498C103.531 26.3008 102.53 27.5025 99.3011 27.8609C99.298 27.8611 99.2948 27.8613 99.2919 27.8613Z" fill="#363E44"/>
<path d="M38.1913 95.3268C36.8883 92.5869 35.8872 91.1047 34.1406 90.4931C31.7932 89.6712 29.5229 91.2026 29.2883 91.3661C29.1385 91.4704 26.9198 92.8257 26.7935 95.4387C26.7025 97.3207 27.3406 99.1898 28.5411 100.58C29.3694 101.54 29.5011 102.917 28.8531 104.006L24.7773 110.858C24.9628 112.681 26.591 114.008 28.4139 113.823L28.8268 113.781C30.6497 113.595 34.2888 112.193 34.1034 110.37L37.3081 103.078C38.4546 102.864 39.3354 102.435 39.6425 101.812C40.1924 100.696 39.7259 98.5534 38.1913 95.3268Z" fill="#E2A18D"/>
<path d="M37.351 103.066C37.346 103.066 37.3411 103.065 37.336 103.064L35.9277 102.808C35.8825 102.8 35.8526 102.757 35.8608 102.712C35.869 102.666 35.9122 102.636 35.9573 102.645L37.3657 102.901C37.4109 102.909 37.4408 102.952 37.4325 102.998C37.4253 103.038 37.3903 103.066 37.351 103.066Z" fill="#363E44"/>
<path d="M35.0353 99.1063C35.0156 99.1063 34.9958 99.0994 34.9799 99.0853C34.8042 98.9284 34.6485 98.7846 34.4837 98.6322C34.3502 98.5086 34.2126 98.3813 34.0572 98.2408C34.0232 98.21 34.0205 98.1575 34.0513 98.1235C34.0821 98.0895 34.1346 98.0869 34.1686 98.1177C34.3244 98.2586 34.4626 98.3863 34.5965 98.5103C34.7608 98.6621 34.9158 98.8056 35.0905 98.9614C35.1247 98.9919 35.1277 99.0445 35.0971 99.0787C35.0808 99.097 35.058 99.1063 35.0353 99.1063Z" fill="#363E44"/>
<path d="M23.3726 97.0451C22.893 95.6017 23.6743 94.0429 25.1177 93.5633C25.1199 93.5625 25.1222 93.562 25.1245 93.5612C24.8981 93.3191 24.7175 93.0271 24.6062 92.6919C24.1931 91.4489 24.8659 90.1064 26.109 89.6934C26.3687 89.6071 26.6324 89.5708 26.8913 89.5746C26.5655 88.3695 27.2309 87.1056 28.4305 86.707C29.1083 86.4817 29.8147 86.5813 30.3847 86.9182C30.6094 86.0376 31.2631 85.2858 32.1895 84.978C33.5908 84.5124 35.1009 85.2323 35.6315 86.5925C35.6963 86.5643 35.7622 86.5377 35.8306 86.5151C37.0736 86.102 38.4161 86.7748 38.8291 88.0179C39.2422 89.2608 38.5694 90.6034 37.3264 91.0164C37.2905 91.0283 37.2543 91.0363 37.2183 91.0463C37.7756 93.2952 35.533 94.3121 35.4059 94.3912C35.9963 95.312 36.5866 96.2328 37.1769 97.1536C36.8283 97.3878 36.4196 97.6932 36.071 97.9273C35.5051 96.9419 34.9552 96.6669 34.3313 96.754C33.3489 96.8913 32.7563 98.0224 32.9654 98.9604C33.1564 99.8165 33.7364 100.589 34.6795 100.797C33.7457 101.124 32.7588 101.438 31.7203 101.732C31.1785 101.885 30.6461 102.026 30.1244 102.155C29.7484 102.052 27.3173 101.344 26.0952 98.9284C24.9003 98.9761 23.7686 98.2367 23.3726 97.0451Z" fill="#363E44"/>
<path d="M13.4424 97.3623C13.4424 97.3623 18.7507 100.469 23.0581 102.496C27.3107 104.497 45.8272 115.136 45.8272 115.136L40.6868 132.551L33.0558 150.91C18.1397 146.07 5.68713 135.122 0 121.473L5.82509 111.023L13.4424 97.3623Z" fill="#EFBC73"/>
<path d="M70.249 147.157L79.0501 112.344L55.461 106.38L46.6599 141.194L70.249 147.157Z" fill="#363E44"/>
<path d="M62.1802 129.427C60.7091 129.055 59.8181 127.561 60.1901 126.089C60.562 124.618 62.0561 123.727 63.5272 124.099C64.9983 124.471 65.8892 125.965 65.5173 127.436C65.1453 128.908 63.6513 129.799 62.1802 129.427Z" fill="#40484C"/>
<path d="M78.3303 132.309C78.1605 131.873 77.7235 131.566 77.2138 131.502C77.2601 131.462 77.8809 130.905 77.7667 130.078C77.6797 129.449 77.2031 128.923 76.5615 128.755C76.8517 128.208 76.8806 127.597 76.6026 127.161C75.7667 125.849 71.2938 127.676 69.1726 128.474C68.2363 128.827 60.2746 131.953 54.7466 134.128L54.1763 131.487C48.6705 133.394 42.274 135.111 42.274 135.111C43.4131 141.835 45.9941 145.067 45.9941 145.067C48.4743 147.934 51.7362 147.787 53.3729 147.311C57.5926 146.085 61.333 144.643 69.3459 140.654C72.7577 138.956 75.5133 137.368 77.3974 136.658C77.9862 136.274 78.2971 135.619 78.1868 135.002C78.0873 134.445 77.6809 134.122 77.5638 134.035C78.2617 133.685 78.5646 132.911 78.3303 132.309Z" fill="#E2A18D"/>
<path d="M51.2778 135.52C51.2441 135.52 51.2124 135.499 51.1999 135.465C51.184 135.422 51.2059 135.374 51.2489 135.359C52.2574 134.985 54.4803 134.14 56.63 133.324C58.7722 132.509 60.9875 131.668 61.9936 131.295C62.037 131.279 62.0844 131.301 62.1003 131.344C62.1162 131.387 62.0943 131.435 62.0513 131.451C61.0458 131.823 58.8309 132.665 56.6889 133.479C54.5388 134.296 52.3157 135.141 51.3066 135.514C51.2971 135.518 51.2874 135.52 51.2778 135.52Z" fill="#363E44"/>
<path d="M73.8616 129.04C73.8258 129.04 73.793 129.016 73.7821 128.981L73.4928 128.026C73.4795 127.982 73.5043 127.936 73.5482 127.923C73.5925 127.909 73.6385 127.934 73.6518 127.978L73.9411 128.932C73.9543 128.976 73.9295 129.023 73.8857 129.036C73.8776 129.039 73.8695 129.04 73.8616 129.04Z" fill="#363E44"/>
<path d="M74.5992 131.46C74.5635 131.46 74.5306 131.437 74.5197 131.401L74.2304 130.447C74.2171 130.403 74.2419 130.357 74.2858 130.343C74.3299 130.33 74.3762 130.355 74.3894 130.399L74.6787 131.353C74.692 131.397 74.6671 131.443 74.6233 131.457C74.6152 131.459 74.6071 131.46 74.5992 131.46Z" fill="#363E44"/>
<path d="M75.3774 133.917C75.3417 133.917 75.3088 133.894 75.2979 133.858L75.0086 132.904C74.9953 132.86 75.0201 132.813 75.064 132.8C75.1083 132.787 75.1543 132.812 75.1676 132.855L75.4569 133.81C75.4702 133.854 75.4453 133.9 75.4015 133.913C75.3934 133.916 75.3853 133.917 75.3774 133.917Z" fill="#363E44"/>
<path d="M76.0372 136.159C76.0015 136.159 75.9686 136.136 75.9577 136.1L75.6684 135.146C75.6551 135.102 75.68 135.056 75.7238 135.042C75.7677 135.029 75.8141 135.054 75.8274 135.098L76.1167 136.052C76.13 136.096 76.1052 136.142 76.0613 136.156C76.0533 136.158 76.0452 136.159 76.0372 136.159Z" fill="#363E44"/>
<path d="M40.1102 137.842L56.6501 132.434C56.6501 132.434 55.8722 120.137 42.9109 113.397C34.6702 109.112 36.4032 132.981 36.4032 132.981L40.1102 137.842Z" fill="#EFBC73"/>
<path d="M38.7065 135.205C38.6776 135.205 38.6495 135.19 38.6342 135.163L36.2286 130.941C36.206 130.901 36.2199 130.85 36.2597 130.828C36.2994 130.805 36.3502 130.819 36.373 130.859L38.7786 135.081C38.8013 135.121 38.7874 135.171 38.7475 135.194C38.7346 135.201 38.7204 135.205 38.7065 135.205Z" fill="#363E44"/>
<path d="M15.8313 87.7014C15.8313 87.7014 23.3719 81.5886 28.4935 80.128C38.7329 77.208 40.7798 73.2846 39.8598 72.4582C38.8614 71.5612 37.3855 73.1176 36.2762 73.7773C36.3352 73.5626 36.3829 72.901 35.9047 72.4405C35.1971 71.759 34.4905 72.0914 34.4136 72.0954C34.4396 72.0247 34.699 71.2531 34.2976 70.7229C33.8454 70.1256 33.2227 69.9748 32.6709 70.0822C32.73 69.9042 32.8791 69.2207 32.4788 68.7213C32.0672 68.2076 31.3482 68.1051 30.7235 68.2615C27.7428 69.0075 25.4834 69.3962 23.8984 70.0905C20.7792 71.4568 10.1427 76.0435 6.24979 79.2411C3.65882 81.9297 6.39681 86.6872 10.4999 88.2543C13.0819 89.2405 15.8313 87.7014 15.8313 87.7014Z" fill="#E2A18D"/>
<path d="M30.6362 70.3887C30.6119 70.3887 30.588 70.3781 30.5715 70.3579L29.9009 69.5301C29.872 69.4944 29.8776 69.442 29.9132 69.4132C29.9491 69.3844 30.0012 69.39 30.0301 69.4254L30.7007 70.2533C30.7296 70.289 30.724 70.3413 30.6885 70.3701C30.6729 70.3826 30.6544 70.3887 30.6362 70.3887Z" fill="#363E44"/>
<path d="M32.3341 72.4981C32.3107 72.4981 32.2875 72.4883 32.2711 72.4692L31.4851 71.5554C31.4552 71.5206 31.4591 71.4682 31.4939 71.4383C31.5287 71.4084 31.5813 71.4123 31.611 71.447L32.397 72.3608C32.4269 72.3956 32.423 72.4481 32.3882 72.4779C32.3725 72.4915 32.3533 72.4981 32.3341 72.4981Z" fill="#363E44"/>
<path d="M34.0544 74.4704C34.0302 74.4704 34.0062 74.4599 33.9898 74.4396C33.865 74.2852 33.7514 74.1467 33.6377 74.0082C33.5238 73.8693 33.4099 73.7304 33.2848 73.5758C33.2559 73.5401 33.2615 73.4878 33.2971 73.459C33.333 73.4299 33.3852 73.4357 33.4139 73.4713C33.5387 73.6257 33.6524 73.7643 33.7661 73.9027C33.8799 74.0416 33.9938 74.1805 34.1189 74.3351C34.1478 74.3708 34.1422 74.4232 34.1066 74.4519C34.0912 74.4645 34.0728 74.4704 34.0544 74.4704Z" fill="#363E44"/>
<path d="M35.2843 76.2629C35.2582 76.2629 35.2324 76.2506 35.2163 76.2275L34.61 75.3635C34.5837 75.326 34.5928 75.2742 34.6303 75.2478C34.6679 75.2213 34.7196 75.2306 34.7459 75.2681L35.3522 76.132C35.3785 76.1696 35.3695 76.2214 35.3319 76.2478C35.3174 76.258 35.3008 76.2629 35.2843 76.2629Z" fill="#363E44"/>
<path d="M16.807 85.1653V99.7456L3.34836 106.565C3.09436 97.9152 3.18971 88.3597 5.31937 80.9814L16.807 85.1653Z" fill="#E2A18D"/>
<path d="M3.64763 115.159C2.14831 109.919 2.14832 99.7456 2.14832 99.7456L17.5081 94.2979L19.0894 100.497L3.64763 115.159Z" fill="#EFBC73"/>
<path d="M3.64747 115.242C3.63027 115.242 3.613 115.237 3.59813 115.226C3.56125 115.198 3.55344 115.146 3.58077 115.109L8.32857 108.695C8.3559 108.658 8.40789 108.65 8.44469 108.677C8.48156 108.705 8.48937 108.757 8.46205 108.794L3.71425 115.208C3.69805 115.23 3.67297 115.242 3.64747 115.242Z" fill="#363E44"/>
<path d="M56.2222 4.00928H37.2465C37.2465 4.00928 35.029 9.8955 35.4389 11.8665C36.2001 15.5271 44.4736 20.8618 44.4736 24.5798C44.4736 28.2976 36.2001 33.6324 35.4389 37.293C35.0291 39.2641 37.2465 45.1503 37.2465 45.1503H56.2221C56.2221 45.1503 58.4396 39.2641 58.0297 37.293C57.2685 33.6324 48.995 28.2977 48.995 24.5798C48.995 20.8619 57.2685 15.5271 58.0297 11.8665C58.4396 9.89541 56.2222 4.00928 56.2222 4.00928Z" fill="#F7F1EB"/>
<path d="M47.3998 24.7776C47.3998 22.579 51.2975 19.6864 53.0641 17.228H40.7746C42.6263 19.6904 46.8403 22.5945 46.8403 24.7776C46.8403 27.535 47.2552 38.292 43.9019 40.9567C42.7469 41.8745 38.4442 44.1121 38.4442 44.1121H55.66C55.66 44.1121 54.4484 43.1966 51.2292 41.7381C47.0521 39.8455 47.3998 27.535 47.3998 24.7776Z" fill="black"/>
<path d="M57.5817 45.2331H38.606C38.5714 45.2331 38.5405 45.2117 38.5282 45.1794C38.4373 44.9382 36.307 39.2479 36.717 37.2761C37.0778 35.5406 39.0416 33.4991 41.1208 31.3377C43.3966 28.9719 45.7499 26.5253 45.7499 24.5797C45.7499 22.634 43.3966 20.1875 41.1208 17.8216C39.0417 15.6603 37.0778 13.6187 36.717 11.8833C36.307 9.9115 38.4373 4.22122 38.5282 3.98001C38.5404 3.94762 38.5714 3.92627 38.606 3.92627H57.5817C57.6162 3.92627 57.6472 3.9477 57.6594 3.98001C57.7504 4.22122 59.8806 9.9115 59.4707 11.8833C59.1098 13.6188 57.146 15.6603 55.0669 17.8216C52.7911 20.1875 50.4377 22.634 50.4377 24.5797C50.4377 26.5254 52.7911 28.9719 55.0668 31.3377C57.146 33.4991 59.1099 35.5407 59.4708 37.2761C59.8808 39.2479 57.7504 44.9382 57.6595 45.1794C57.6472 45.2117 57.6162 45.2331 57.5817 45.2331ZM38.6637 45.067H57.5238C57.7441 44.4714 59.6875 39.1354 59.3079 37.3097C58.9568 35.6213 56.9183 33.5021 54.947 31.4527C52.6483 29.0632 50.2715 26.5921 50.2715 24.5796C50.2715 22.5669 52.6484 20.0959 54.9471 17.7064C56.9183 15.657 58.9568 13.5378 59.3079 11.8494C59.6875 10.0235 57.7442 4.6876 57.5238 4.09206H38.6637C38.4434 4.6876 36.5 10.0236 36.8798 11.8494C37.2308 13.5378 39.2692 15.6569 41.2406 17.7064C43.5393 20.0959 45.9161 22.5669 45.9161 24.5796C45.9161 26.5921 43.5393 29.0631 41.2406 31.4527C39.2693 33.5021 37.2308 35.6213 36.8798 37.3097C36.5 39.1356 38.4434 44.4715 38.6637 45.067Z" fill="white"/>
<path d="M55.3764 42.0437C55.3687 42.0437 55.3608 42.0426 55.3531 42.0404C55.3091 42.0275 55.2838 41.9813 55.2967 41.9373C55.9512 39.7027 56.21 38.1024 56.0452 37.3098C55.7764 36.0165 54.5081 34.4906 53.4333 33.3056C53.4025 33.2717 53.405 33.2192 53.439 33.1883C53.4728 33.1575 53.5253 33.1599 53.5562 33.194C54.6452 34.3945 55.9308 35.9435 56.2079 37.2761C56.3806 38.107 56.1277 39.691 55.4562 41.9841C55.4455 42.0201 55.4124 42.0437 55.3764 42.0437Z" fill="white"/>
<path d="M54.5557 14.7579C54.5375 14.7579 54.5193 14.752 54.5039 14.7397C54.468 14.711 54.4623 14.6587 54.491 14.623C55.3794 13.5139 55.8878 12.6068 56.0452 11.8496C56.2755 10.7418 55.6532 8.35059 55.0906 6.53955C55.077 6.49578 55.1015 6.44918 55.1453 6.43556C55.1893 6.42219 55.2357 6.44644 55.2493 6.49021C55.8177 8.31994 56.4454 10.7409 56.2079 11.8833C56.0428 12.6776 55.5385 13.5811 54.6207 14.7267C54.6042 14.7473 54.5801 14.7579 54.5557 14.7579Z" fill="white"/>
<path d="M58.0648 44.7361H35.4245V47.4741H58.0648V44.7361Z" fill="#8B865C"/>
<path d="M58.0648 1.77686H35.4245V4.51485H58.0648V1.77686Z" fill="#8B865C"/>
</svg>
