<svg width="25" height="25" viewBox="0 0 25 25" fill="none" xmlns="http://www.w3.org/2000/svg">
<path d="M7.08163 7.08179H6.06996C5.53334 7.08179 5.0187 7.29496 4.63925 7.67441C4.2598 8.05386 4.04663 8.5685 4.04663 9.10512V18.2101C4.04663 18.7467 4.2598 19.2614 4.63925 19.6408C5.0187 20.0203 5.53334 20.2335 6.06996 20.2335H15.175C15.7116 20.2335 16.2262 20.0203 16.6057 19.6408C16.9851 19.2614 17.1983 18.7467 17.1983 18.2101V17.1985" stroke="black" stroke-width="2.02333" stroke-linecap="round" stroke-linejoin="round"/>
<path d="M16.1866 5.05835L19.2216 8.09335M20.6228 6.66185C21.0212 6.2634 21.2451 5.723 21.2451 5.15952C21.2451 4.59604 21.0212 4.05564 20.6228 3.6572C20.2244 3.25875 19.684 3.03491 19.1205 3.03491C18.557 3.03491 18.0166 3.25875 17.6182 3.6572L9.10498 12.14V15.175H12.14L20.6228 6.66185Z" stroke="black" stroke-width="2.02333" stroke-linecap="round" stroke-linejoin="round"/>
</svg>
