<svg width="57" height="57" viewBox="0 0 57 57" fill="none" xmlns="http://www.w3.org/2000/svg">
<circle cx="28.44" cy="28.44" r="28.44" fill="black"/>
<path opacity="0.4" fill-rule="evenodd" clip-rule="evenodd" d="M15.7348 11.2962C15.4036 11.4641 15.2037 11.7948 15.2037 12.1749C15.2037 12.555 15.4036 12.8857 15.7348 13.0536C15.9471 13.1612 16.2215 13.169 19.222 13.1529C22.3939 13.136 22.4834 13.1319 22.6615 12.9989C22.9897 12.7536 23.1097 12.5331 23.1097 12.1749C23.1097 11.8167 22.9897 11.5961 22.6615 11.3509C22.4834 11.2178 22.3939 11.2138 19.222 11.1968C16.2215 11.1807 15.9471 11.1886 15.7348 11.2962ZM41.628 11.2934C41.5013 11.3592 41.3299 11.5143 41.2473 11.6381C41.1164 11.8341 41.0969 11.9477 41.0969 12.5159V13.1686L40.4844 13.1688C39.7741 13.1688 39.4963 13.2725 39.2606 13.6256C38.9455 14.0974 39.1301 14.7832 39.6414 15.0401C39.811 15.1254 40.0334 15.1559 40.4844 15.156L41.0969 15.1561V15.8088C41.0969 16.3771 41.1164 16.4907 41.2473 16.6866C41.6503 17.2902 42.4499 17.2762 42.9117 16.6574C43.0198 16.5125 43.0511 16.3499 43.0722 15.8228L43.0985 15.1681L43.7486 15.1455C44.2792 15.1272 44.4324 15.0979 44.5815 14.9864C44.9097 14.741 45.0296 14.5205 45.0296 14.1624C45.0296 13.8042 44.9097 13.5838 44.5815 13.3384C44.4324 13.2269 44.2792 13.1976 43.7486 13.1792L43.0985 13.1567L43.0722 12.502C43.0442 11.8024 42.9764 11.6361 42.607 11.3601C42.362 11.1772 41.9114 11.1465 41.628 11.2934ZM11.6952 15.2712C11.364 15.4391 11.1641 15.7698 11.1641 16.1499C11.1641 16.53 11.364 16.8607 11.6952 17.0286C11.9075 17.1362 12.1834 17.144 15.2155 17.1279C18.4208 17.111 18.5099 17.107 18.6881 16.9739C19.0163 16.7286 19.1363 16.5081 19.1363 16.1499C19.1363 15.7917 19.0163 15.5711 18.6881 15.3259C18.5099 15.1928 18.4208 15.1888 15.2155 15.1718C12.1834 15.1557 11.9075 15.1636 11.6952 15.2712ZM35.6017 39.2509C35.475 39.3167 35.3036 39.4718 35.221 39.5956C35.0901 39.7916 35.0706 39.9051 35.0706 40.4734V41.1261L34.4581 41.1263C33.7478 41.1263 33.47 41.23 33.2343 41.5831C32.9192 42.0549 33.1038 42.7406 33.615 42.9976C33.7847 43.0829 34.0071 43.1134 34.4581 43.1135L35.0706 43.1136V43.7663C35.0706 44.3346 35.0901 44.4482 35.221 44.6441C35.624 45.2477 36.4236 45.2337 36.8854 44.6149C36.9935 44.47 37.0248 44.3074 37.0459 43.7803L37.0722 43.1256L37.7223 43.103C38.2528 43.0847 38.4061 43.0554 38.5551 42.9439C38.8834 42.6985 39.0033 42.478 39.0033 42.1199C39.0033 41.7617 38.8834 41.5413 38.5551 41.2959C38.4061 41.1844 38.2528 41.1551 37.7223 41.1367L37.0722 41.1142L37.0459 40.4595C37.0178 39.7599 36.9501 39.5936 36.5806 39.3176C36.3357 39.1347 35.8851 39.104 35.6017 39.2509Z" fill="white"/>
<path fill-rule="evenodd" clip-rule="evenodd" d="M28.5477 12.7518C27.6886 12.8681 26.4957 13.3322 25.7168 13.8533C24.902 14.3982 21.4138 17.9257 21.0651 18.5572C20.6565 19.2972 20.4916 19.9076 20.4537 20.8207L20.4206 21.6157L23.1928 18.8626C26.1294 15.9463 26.2447 15.8503 27.1194 15.5933C27.5864 15.4561 28.5156 15.4561 28.9826 15.5933C29.9231 15.8697 30.7329 16.548 31.1527 17.411L31.3959 17.911L31.8592 17.7506C32.5172 17.5226 33.394 17.524 34.051 17.7541C36.0452 18.4524 36.9434 20.5284 36.1087 22.5101C36.0774 22.5842 36.1969 22.671 36.5786 22.8517C38.2545 23.6447 38.9711 25.6382 38.2209 27.4201C38.1857 27.5038 38.2864 27.5794 38.6864 27.7695C39.306 28.0638 39.9763 28.7104 40.2521 29.2797C40.7724 30.354 40.7614 31.5043 40.2206 32.5416C40.0524 32.8642 39.598 33.3606 37.9379 35.0345C36.798 36.184 35.8653 37.1494 35.8653 37.1797C35.8653 37.21 36.2602 37.2204 36.7428 37.2028C37.4655 37.1765 37.7137 37.1392 38.15 36.9916C39.1623 36.6492 39.4483 36.4283 41.4498 34.442C43.4289 32.478 43.7847 32.0625 44.236 31.1888C45.1952 29.3317 45.261 26.9981 44.4073 25.1144C43.8854 23.9632 43.8805 23.9577 38.885 18.9446C33.7582 13.7998 33.6843 13.7342 32.4516 13.2305C31.5259 12.8522 30.7087 12.7029 29.63 12.715C29.1439 12.7205 28.657 12.737 28.5477 12.7518ZM27.4141 17.5938C27.3006 17.656 24.9165 19.9808 22.1162 22.7599C17.257 27.5825 17.0227 27.8045 16.9791 27.6293C16.9539 27.5283 16.8576 26.0743 16.7652 24.3982L16.5971 21.3507L16.3805 20.9226C15.7562 19.6884 14.0986 19.4522 13.1824 20.4667C12.7804 20.9119 12.7017 21.1738 12.5866 22.4495C12.3941 24.5837 12.2661 25.641 11.7254 29.5657C11.2125 33.2884 11.2016 33.405 11.1993 35.2301C11.1975 36.637 11.2181 37.0191 11.3222 37.5157C11.6976 39.3061 12.5022 40.7375 13.9413 42.1745C15.3395 43.5708 17.0426 44.484 19.0446 44.911C19.9553 45.1052 21.7958 45.1249 22.7349 44.9504C24.0621 44.7039 25.4042 44.1599 26.5561 43.4016C27.1604 43.0037 27.7486 42.4378 32.8019 37.3921C36.0488 34.1502 38.4279 31.7242 38.4935 31.5882C38.5555 31.4597 38.618 31.1756 38.6323 30.957C38.6847 30.1571 38.098 29.481 37.2937 29.4143C36.6212 29.3585 36.6166 29.3619 34.2429 31.7214C31.8943 34.0557 31.9018 34.05 31.3357 33.9438C30.707 33.8259 30.3875 33.1193 30.6954 32.5278C30.7658 32.3926 32.0503 31.0597 33.5498 29.5657C35.3617 27.7605 36.3179 26.7606 36.4004 26.5845C36.6541 26.0433 36.5147 25.2815 36.0889 24.882C35.6906 24.5083 35.0019 24.3869 34.4891 24.5998C34.3215 24.6694 33.3329 25.6099 31.3953 27.5428C28.9055 30.0266 28.5165 30.3893 28.2993 30.4292C27.5171 30.5729 26.9452 30.0009 27.0883 29.2179C27.1282 28.9995 27.5607 28.5409 30.6649 25.4251C32.6071 23.4757 34.2396 21.7913 34.2928 21.682C34.4459 21.3673 34.4779 21.0749 34.4 20.7025C34.3405 20.4184 34.2658 20.2965 33.9798 20.0166C33.469 19.5168 32.8989 19.4211 32.2893 19.7327C32.1618 19.7979 30.5228 21.3905 28.647 23.272C26.7712 25.1534 25.1259 26.7504 24.9908 26.8208C24.3995 27.129 23.6933 26.8094 23.5753 26.1803C23.4668 25.6016 23.4041 25.6792 26.4639 22.6095C28.3961 20.6711 29.3362 19.682 29.4057 19.5144C29.7117 18.7768 29.3533 17.8792 28.6326 17.578C28.3055 17.4413 27.6774 17.4495 27.4141 17.5938Z" fill="white"/>
</svg>
