<svg width="23" height="20" viewBox="0 0 23 20" fill="none" xmlns="http://www.w3.org/2000/svg">
<path d="M20.625 3.875H3.12497C2.8929 3.875 2.67035 3.78281 2.50625 3.61872C2.34216 3.45462 2.24997 3.23206 2.24997 3C2.24997 2.76794 2.34216 2.54538 2.50625 2.38128C2.67035 2.21719 2.8929 2.125 3.12497 2.125H18C18.232 2.125 18.4546 2.03281 18.6187 1.86872C18.7828 1.70462 18.875 1.48206 18.875 1.25C18.875 1.01794 18.7828 0.795376 18.6187 0.631282C18.4546 0.467187 18.232 0.375 18 0.375H3.12497C2.42878 0.375 1.7611 0.651562 1.26881 1.14384C0.776531 1.63613 0.499969 2.30381 0.499969 3V17C0.499969 17.6962 0.776531 18.3639 1.26881 18.8562C1.7611 19.3484 2.42878 19.625 3.12497 19.625H20.625C21.0891 19.625 21.5342 19.4406 21.8624 19.1124C22.1906 18.7842 22.375 18.3391 22.375 17.875V5.625C22.375 5.16087 22.1906 4.71575 21.8624 4.38756C21.5342 4.05937 21.0891 3.875 20.625 3.875ZM16.6875 12.625C16.4279 12.625 16.1741 12.548 15.9583 12.4038C15.7424 12.2596 15.5742 12.0546 15.4749 11.8148C15.3755 11.5749 15.3495 11.311 15.4002 11.0564C15.4508 10.8018 15.5758 10.568 15.7594 10.3844C15.9429 10.2009 16.1768 10.0759 16.4314 10.0252C16.686 9.97458 16.9499 10.0006 17.1897 10.0999C17.4296 10.1992 17.6346 10.3675 17.7788 10.5833C17.923 10.7992 18 11.0529 18 11.3125C18 11.6606 17.8617 11.9944 17.6155 12.2406C17.3694 12.4867 17.0356 12.625 16.6875 12.625Z" fill="black"/>
</svg>
