<svg width="25" height="25" viewBox="0 0 25 25" fill="none" xmlns="http://www.w3.org/2000/svg">
<path d="M19.7275 12.1402C19.7275 11.9389 19.8074 11.7459 19.9497 11.6036C20.092 11.4613 20.285 11.3814 20.4863 11.3814C20.6875 11.3814 20.8805 11.4613 21.0228 11.6036C21.1651 11.7459 21.245 11.9389 21.245 12.1402V20.4864C21.245 20.6876 21.1651 20.8806 21.0228 21.0229C20.8805 21.1652 20.6875 21.2452 20.4863 21.2452H3.79375C3.59252 21.2452 3.39953 21.1652 3.25724 21.0229C3.11494 20.8806 3.035 20.6876 3.035 20.4864V3.79391C3.035 3.59267 3.11494 3.39968 3.25724 3.25739C3.39953 3.1151 3.59252 3.03516 3.79375 3.03516H12.14C12.3412 3.03516 12.5342 3.1151 12.6765 3.25739C12.8188 3.39968 12.8988 3.59267 12.8988 3.79391C12.8988 3.99514 12.8188 4.18813 12.6765 4.33042C12.5342 4.47272 12.3412 4.55266 12.14 4.55266C7.94954 4.55266 4.5525 7.9497 4.5525 12.1402C4.5525 16.3306 7.94954 19.7277 12.14 19.7277C16.3305 19.7277 19.7275 16.3306 19.7275 12.1402Z" fill="black"/>
<path d="M11.143 13.1414L12.3949 12.9623L20.0856 5.27314C20.1581 5.20315 20.2159 5.11942 20.2557 5.02685C20.2954 4.93428 20.3164 4.83472 20.3172 4.73397C20.3181 4.63322 20.2989 4.53331 20.2608 4.44007C20.2226 4.34682 20.1663 4.2621 20.095 4.19086C20.0238 4.11962 19.9391 4.06328 19.8458 4.02513C19.7526 3.98698 19.6527 3.96778 19.5519 3.96866C19.4512 3.96953 19.3516 3.99046 19.259 4.03023C19.1665 4.06999 19.0827 4.1278 19.0128 4.20027L11.3205 11.8894L11.1415 13.1414H11.143ZM21.1585 3.12588C21.37 3.33726 21.5378 3.58826 21.6523 3.86452C21.7668 4.14079 21.8257 4.4369 21.8257 4.73594C21.8257 5.03499 21.7668 5.3311 21.6523 5.60736C21.5378 5.88363 21.37 6.13462 21.1585 6.34601L13.2903 14.2142C13.1742 14.3307 13.0235 14.4063 12.8608 14.4297L10.3569 14.7879C10.2402 14.8046 10.1213 14.794 10.0094 14.7567C9.89755 14.7195 9.79592 14.6567 9.71256 14.5733C9.6292 14.49 9.56641 14.3883 9.52917 14.2765C9.49194 14.1646 9.48127 14.0456 9.49803 13.929L9.85616 11.4251C9.87915 11.2626 9.95423 11.1119 10.0701 10.9956L17.9399 3.12739C18.3667 2.70066 18.9456 2.46094 19.5492 2.46094C20.1528 2.46094 20.7316 2.70066 21.1585 3.12739V3.12588Z" fill="black"/>
</svg>
