<svg width="19" height="15" viewBox="0 0 19 15" fill="none" xmlns="http://www.w3.org/2000/svg">
<path d="M1.66885 14.2214C1.20348 14.2214 0.814999 14.0656 0.503405 13.754C0.191138 13.4418 0.0350037 13.053 0.0350037 12.5876V1.69195C0.0350037 1.22658 0.191138 0.8381 0.503405 0.526507C0.814999 0.214239 1.20348 0.0581055 1.66885 0.0581055H16.6112C17.0765 0.0581055 17.465 0.214239 17.7766 0.526507C18.0889 0.8381 18.245 1.22658 18.245 1.69195V12.5876C18.245 13.053 18.0892 13.4414 17.7776 13.753C17.4653 14.0653 17.0765 14.2214 16.6112 14.2214H1.66885ZM9.64584 13.2098H16.6112C16.7663 13.2098 16.9089 13.145 17.0391 13.0155C17.1686 12.8854 17.2333 12.7427 17.2333 12.5876V1.69195C17.2333 1.53682 17.1686 1.39418 17.0391 1.26401C16.9089 1.13452 16.7663 1.06977 16.6112 1.06977H9.64584V13.2098ZM15.6956 9.86318C15.8251 9.86318 15.9323 9.82103 16.0173 9.73672C16.1016 9.65242 16.1438 9.54585 16.1438 9.41703C16.1438 9.28822 16.1016 9.18132 16.0173 9.09634C15.9323 9.01136 15.8254 8.96887 15.6966 8.96887H11.1826C11.0537 8.96887 10.9468 9.01102 10.8619 9.09532C10.7776 9.17963 10.7354 9.28619 10.7354 9.41501C10.7354 9.54383 10.7776 9.65073 10.8619 9.73571C10.9468 9.82069 11.0537 9.86318 11.1826 9.86318H15.6956ZM15.6956 7.33401C15.8251 7.33401 15.9323 7.29186 16.0173 7.20755C16.1016 7.12325 16.1438 7.01669 16.1438 6.88787C16.1438 6.75905 16.1016 6.65215 16.0173 6.56717C15.9323 6.48219 15.8254 6.4397 15.6966 6.4397H11.1826C11.0537 6.4397 10.9468 6.48185 10.8619 6.56616C10.7776 6.65046 10.7354 6.75702 10.7354 6.88584C10.7354 7.01466 10.7776 7.12156 10.8619 7.20654C10.9468 7.29152 11.0537 7.33401 11.1826 7.33401H15.6956ZM15.6956 4.80485C15.8251 4.80485 15.9323 4.76269 16.0173 4.67839C16.1016 4.59408 16.1438 4.48752 16.1438 4.3587C16.1438 4.22988 16.1016 4.12298 16.0173 4.038C15.9323 3.95302 15.8254 3.91053 15.6966 3.91053H11.1826C11.0537 3.91053 10.9468 3.95268 10.8619 4.03699C10.7776 4.1213 10.7354 4.22786 10.7354 4.35668C10.7354 4.4855 10.7776 4.5924 10.8619 4.67738C10.9468 4.76236 11.0537 4.80485 11.1826 4.80485H15.6956Z" fill="black"/>
</svg>
