<svg width="18" height="19" viewBox="0 0 18 19" fill="none" xmlns="http://www.w3.org/2000/svg">
<path d="M7.25324 18.2452L6.88701 15.3194C6.56395 15.2216 6.21493 15.0685 5.83994 14.8601C5.46427 14.651 5.14459 14.4271 4.88088 14.1884L2.18276 15.3366L0.296005 12.0487L2.6279 10.2904C2.59822 10.107 2.5736 9.91813 2.55405 9.72389C2.53516 9.53032 2.52572 9.34215 2.52572 9.15938C2.52572 8.98942 2.53516 8.81069 2.55405 8.62319C2.57293 8.4357 2.59755 8.2246 2.6279 7.98989L0.296005 6.23161L2.18276 2.98214L4.86166 4.11217C5.16381 3.86061 5.49091 3.63365 5.84297 3.43132C6.19369 3.22899 6.53529 3.07252 6.86779 2.96191L7.25222 0.0351562H11.0268L11.393 2.98113C11.7808 3.11669 12.1234 3.27283 12.4208 3.44953C12.7189 3.62624 13.0255 3.84678 13.3404 4.11116L16.0972 2.98214L17.984 6.23161L15.5742 8.04857C15.6295 8.25764 15.6605 8.44919 15.6673 8.62319C15.674 8.79855 15.6774 8.97087 15.6774 9.14016C15.6774 9.2973 15.6706 9.46288 15.6572 9.63688C15.6443 9.81157 15.6147 10.0227 15.5681 10.2702L17.9395 12.0487L16.0527 15.3366L13.3404 14.1692C13.0255 14.4335 12.7085 14.6605 12.3895 14.85C12.0698 15.0395 11.7376 15.1892 11.393 15.2992L11.0268 18.2452H7.25324ZM9.11268 11.6693C9.81815 11.6693 10.416 11.4242 10.9064 10.9338C11.3967 10.4435 11.6418 9.84562 11.6418 9.14016C11.6418 8.43469 11.3967 7.83679 10.9064 7.34647C10.416 6.85615 9.81815 6.61099 9.11268 6.61099C8.40316 6.61099 7.80426 6.85615 7.31596 7.34647C6.82766 7.83679 6.58351 8.43469 6.58351 9.14016C6.58351 9.84562 6.82766 10.4435 7.31596 10.9338C7.80426 11.4242 8.40316 11.6693 9.11268 11.6693Z" fill="black"/>
</svg>
